<?xml version="1.0" encoding="UTF-8"?>
<svg xmlns="http://www.w3.org/2000/svg" xmlns:xlink="http://www.w3.org/1999/xlink" width="609px" height="554px" viewBox="0 0 291 265" version="1.1">
<defs>
<filter id="alpha" filterUnits="objectBoundingBox" x="0%" y="0%" width="100%" height="100%">
  <feColorMatrix type="matrix" in="SourceGraphic" values="0 0 0 0 1 0 0 0 0 1 0 0 0 0 1 0 0 0 1 0"/>
</filter>
<mask id="mask0">
  <g filter="url(#alpha)">
<rect x="0" y="0" width="291" height="265" style="fill:rgb(0%,0%,0%);fill-opacity:0.101961;stroke:none;"/>
  </g>
</mask>
<clipPath id="clip1">
  <rect x="0" y="0" width="291" height="265"/>
</clipPath>
<g id="surface5" clip-path="url(#clip1)">
<path style=" stroke:none;fill-rule:nonzero;fill:rgb(0%,0%,0%);fill-opacity:1;" d="M 231.960938 56.140625 L 231.039062 44.972656 L 218.773438 44.972656 L 216.054688 56.804688 Z M 231.960938 56.140625 "/>
</g>
<mask id="mask1">
  <g filter="url(#alpha)">
<rect x="0" y="0" width="291" height="265" style="fill:rgb(0%,0%,0%);fill-opacity:0.101961;stroke:none;"/>
  </g>
</mask>
<clipPath id="clip2">
  <rect x="0" y="0" width="291" height="265"/>
</clipPath>
<g id="surface8" clip-path="url(#clip2)">
<path style=" stroke:none;fill-rule:nonzero;fill:rgb(0%,0%,0%);fill-opacity:1;" d="M 97.0625 43.734375 L 97.636719 29.730469 L 88.4375 23.851562 L 91.5625 41.179688 Z M 97.0625 43.734375 "/>
</g>
</defs>
<g id="surface1">
<path style=" stroke:none;fill-rule:nonzero;fill:rgb(100%,71.372549%,71.372549%);fill-opacity:1;" d="M 139.878906 53.0625 C 143.121094 49.761719 147.445312 48.757812 149.542969 50.824219 C 151.644531 52.890625 150.714844 57.238281 147.476562 60.542969 C 146.199219 61.882812 144.621094 62.894531 142.875 63.496094 L 128.96875 77.316406 L 122.632812 70.640625 L 137.011719 57.722656 C 137.582031 55.964844 138.566406 54.363281 139.878906 53.0625 Z M 139.878906 53.0625 "/>
<path style=" stroke:none;fill-rule:nonzero;fill:rgb(90.196078%,90.196078%,90.196078%);fill-opacity:1;" d="M 95.414062 41.65625 L 109.992188 74.050781 L 133.269531 61.429688 L 141.601562 65.859375 C 141.601562 65.859375 122.570312 97.726562 109.539062 94.097656 C 96.511719 90.472656 73.375 57.574219 77.542969 47.421875 C 81.710938 37.269531 95.414062 41.65625 95.414062 41.65625 Z M 95.414062 41.65625 "/>
<path style=" stroke:none;fill-rule:nonzero;fill:rgb(62.745098%,38.039216%,41.568627%);fill-opacity:1;" d="M 162.988281 59.941406 C 159.605469 56.789062 158.488281 52.480469 160.492188 50.324219 C 162.496094 48.167969 166.863281 48.976562 170.25 52.132812 C 171.617188 53.375 172.671875 54.925781 173.316406 56.660156 L 187.488281 70.207031 L 181 76.730469 L 167.71875 62.683594 C 165.945312 62.160156 164.324219 61.222656 162.988281 59.941406 Z M 162.988281 59.941406 "/>
<path style=" stroke:none;fill-rule:nonzero;fill:rgb(42.352941%,38.823529%,100%);fill-opacity:1;" d="M 234.371094 62.03125 L 207.019531 91.199219 C 207.019531 91.199219 200.875 97.289062 190.769531 88.507812 C 180.664062 79.730469 169.429688 65.324219 169.429688 65.324219 L 175.730469 58.453125 L 186.898438 68.429688 C 186.898438 68.429688 193.527344 71.101562 193.988281 72.832031 C 194.449219 74.5625 193.160156 75.277344 195.230469 74.722656 C 197.300781 74.167969 197.339844 72.933594 197.472656 74.804688 C 197.601562 76.679688 196.335938 78.871094 198.726562 76.75 C 201.121094 74.628906 201.835938 75.917969 201.835938 75.917969 L 219.316406 52.722656 C 219.316406 52.722656 230.613281 43.773438 233.859375 51.792969 C 237.109375 59.816406 234.371094 62.03125 234.371094 62.03125 Z M 234.371094 62.03125 "/>
<path style=" stroke:none;fill-rule:nonzero;fill:rgb(100%,71.372549%,71.372549%);fill-opacity:1;" d="M 89.019531 257.5625 L 99.648438 257.5625 L 104.707031 216.488281 L 89.019531 216.492188 Z M 89.019531 257.5625 "/>
<path style=" stroke:none;fill-rule:nonzero;fill:rgb(18.431373%,18.039216%,25.490196%);fill-opacity:1;" d="M 125.4375 257.320312 C 125.769531 257.878906 125.945312 259.679688 125.945312 260.332031 C 125.945312 262.328125 124.328125 263.945312 122.335938 263.945312 L 89.417969 263.945312 C 88.058594 263.945312 86.957031 262.839844 86.957031 261.480469 L 86.957031 260.105469 C 86.957031 260.105469 85.328125 255.980469 88.679688 250.894531 C 88.679688 250.894531 92.847656 254.875 99.074219 248.640625 L 100.910156 245.308594 L 114.203125 255.042969 L 121.570312 255.953125 C 123.179688 256.152344 124.609375 255.921875 125.4375 257.320312 Z M 125.4375 257.320312 "/>
<path style=" stroke:none;fill-rule:nonzero;fill:rgb(18.431373%,18.039216%,25.490196%);fill-opacity:1;" d="M 237.875 68.027344 L 211.53125 68.027344 L 211.53125 29.035156 L 237.875 29.035156 Z M 237.875 68.027344 "/>
<path style=" stroke:none;fill-rule:nonzero;fill:rgb(62.745098%,38.039216%,41.568627%);fill-opacity:1;" d="M 231.960938 56.140625 L 231.039062 44.972656 L 218.773438 44.972656 L 216.054688 56.804688 Z M 231.960938 56.140625 "/>
<use xlink:href="#surface5" mask="url(#mask0)"/>
<path style=" stroke:none;fill-rule:nonzero;fill:rgb(100%,71.372549%,71.372549%);fill-opacity:1;" d="M 97.0625 43.734375 L 97.277344 29.371094 L 88.4375 23.851562 L 78.824219 35.632812 Z M 97.0625 43.734375 "/>
<use xlink:href="#surface8" mask="url(#mask1)"/>
<path style=" stroke:none;fill-rule:nonzero;fill:rgb(62.745098%,38.039216%,41.568627%);fill-opacity:1;" d="M 236.382812 35.09375 C 236.382812 42.511719 230.378906 48.523438 222.976562 48.523438 C 215.570312 48.523438 209.566406 42.511719 209.566406 35.09375 C 209.566406 27.675781 215.570312 21.664062 222.976562 21.664062 C 230.378906 21.664062 236.382812 27.675781 236.382812 35.09375 Z M 236.382812 35.09375 "/>
<path style=" stroke:none;fill-rule:nonzero;fill:rgb(18.431373%,18.039216%,25.490196%);fill-opacity:1;" d="M 219.59375 20.964844 C 219.59375 20.964844 219.59375 15.449219 224.703125 16.628906 C 229.816406 17.8125 231.386719 19.78125 231.386719 19.78125 C 231.386719 19.78125 233.355469 22.933594 236.5 23.324219 C 239.644531 23.71875 242.398438 32.777344 242.003906 34.746094 C 241.609375 36.71875 239.644531 41.835938 242.398438 44.199219 C 245.148438 46.5625 249.082031 50.109375 247.902344 53.652344 C 246.722656 57.199219 243.183594 66.257812 243.183594 66.257812 C 243.183594 66.257812 253.054688 67.699219 252.246094 73.871094 C 252.246094 73.871094 247.507812 70.195312 241.21875 70.195312 C 234.925781 70.195312 235.714844 58.761719 235.714844 58.761719 C 235.714844 58.761719 235.320312 51.683594 234.140625 49.714844 C 232.960938 47.746094 234.535156 36.71875 228.636719 30.808594 C 222.738281 24.902344 219.59375 20.964844 219.59375 20.964844 Z M 219.59375 20.964844 "/>
<path style=" stroke:none;fill-rule:nonzero;fill:rgb(18.431373%,18.039216%,25.490196%);fill-opacity:1;" d="M 221.164062 19.78125 C 221.164062 19.78125 213.695312 21.355469 210.941406 28.839844 C 208.191406 36.324219 209.582031 37.714844 209.582031 37.714844 C 209.582031 37.714844 208.972656 42.222656 205.632812 43.800781 C 202.292969 45.382812 205.046875 52.078125 205.046875 52.078125 C 205.046875 52.078125 204.257812 58.773438 193.644531 61.136719 C 183.027344 63.5 206.957031 81.621094 206.957031 81.621094 C 206.957031 81.621094 205.234375 73.066406 216.246094 72.675781 C 227.253906 72.28125 214.089844 52.078125 214.089844 52.078125 L 212.910156 39.082031 C 212.910156 39.082031 215.269531 24.113281 222.34375 22.144531 C 229.421875 20.175781 221.164062 19.78125 221.164062 19.78125 Z M 221.164062 19.78125 "/>
<path style=" stroke:none;fill-rule:nonzero;fill:rgb(100%,71.372549%,71.372549%);fill-opacity:1;" d="M 112.816406 18.089844 C 112.816406 26.789062 105.777344 33.839844 97.089844 33.839844 C 88.40625 33.839844 81.367188 26.789062 81.367188 18.089844 C 81.367188 9.390625 88.40625 2.339844 97.089844 2.339844 C 105.777344 2.339844 112.816406 9.390625 112.816406 18.089844 Z M 112.816406 18.089844 "/>
<path style=" stroke:none;fill-rule:nonzero;fill:rgb(18.431373%,18.039216%,25.490196%);fill-opacity:1;" d="M 118.535156 138.699219 L 103.886719 238.546875 L 85.511719 238.546875 L 87.953125 181.550781 L 89.242188 151.582031 L 85.511719 137.320312 C 85.511719 137.320312 83.808594 134.148438 82.378906 130.304688 C 80.761719 125.96875 79.488281 120.769531 81.382812 118.300781 C 82.078125 117.394531 83.890625 116.71875 86.351562 116.21875 C 87.855469 115.910156 89.605469 115.671875 91.496094 115.484375 C 102.363281 114.410156 117.820312 115.082031 117.820312 115.082031 L 118.214844 128.070312 L 118.433594 135.324219 Z M 118.535156 138.699219 "/>
<path style=" stroke:none;fill-rule:nonzero;fill:rgb(100%,71.372549%,71.372549%);fill-opacity:1;" d="M 28.5 241.652344 L 37.863281 246.691406 L 61.722656 212.910156 L 47.902344 205.472656 Z M 28.5 241.652344 "/>
<path style=" stroke:none;fill-rule:nonzero;fill:rgb(18.431373%,18.039216%,25.490196%);fill-opacity:1;" d="M 60.695312 258.707031 C 60.722656 259.355469 60.023438 261.027344 59.71875 261.597656 C 58.773438 263.355469 56.585938 264.015625 54.832031 263.070312 L 25.832031 247.464844 C 24.636719 246.820312 24.1875 245.324219 24.828125 244.125 L 25.476562 242.917969 C 25.476562 242.917969 25.992188 238.511719 31.351562 235.621094 C 31.351562 235.621094 33.140625 241.101562 41.570312 238.558594 L 44.761719 236.496094 L 51.871094 251.375 L 57.929688 255.667969 C 59.257812 256.605469 60.625 257.082031 60.695312 258.707031 Z M 60.695312 258.707031 "/>
<path style=" stroke:none;fill-rule:nonzero;fill:rgb(18.431373%,18.039216%,25.490196%);fill-opacity:1;" d="M 118.433594 135.324219 L 110.65625 150.941406 L 87.953125 181.550781 L 50.578125 231.949219 L 34.390625 223.238281 L 78.761719 148.402344 L 82.21875 134.066406 C 82.21875 134.066406 82.21875 132.515625 82.378906 130.304688 C 82.683594 125.929688 83.605469 118.953125 86.351562 116.21875 C 86.722656 115.847656 87.125 115.554688 87.566406 115.355469 C 88.390625 114.984375 89.761719 115.074219 91.496094 115.484375 C 98.734375 117.21875 112.242188 124.65625 118.214844 128.070312 Z M 118.433594 135.324219 "/>
<path style=" stroke:none;fill-rule:nonzero;fill:rgb(62.745098%,38.039216%,41.568627%);fill-opacity:1;" d="M 230.964844 258.816406 L 221.824219 258.8125 L 217.476562 223.5 L 230.964844 223.5 Z M 230.964844 258.816406 "/>
<path style=" stroke:none;fill-rule:nonzero;fill:rgb(18.431373%,18.039216%,25.490196%);fill-opacity:1;" d="M 199.652344 258.605469 C 199.367188 259.085938 199.214844 260.636719 199.214844 261.195312 C 199.214844 262.910156 200.605469 264.300781 202.316406 264.300781 L 230.621094 264.300781 C 231.789062 264.300781 232.738281 263.351562 232.738281 262.183594 L 232.738281 261 C 232.738281 261 234.136719 257.453125 231.253906 253.082031 C 231.253906 253.082031 227.671875 256.503906 222.320312 251.140625 L 220.742188 248.277344 L 209.3125 256.648438 L 202.976562 257.429688 C 201.59375 257.601562 200.363281 257.402344 199.652344 258.605469 Z M 199.652344 258.605469 "/>
<path style=" stroke:none;fill-rule:nonzero;fill:rgb(62.745098%,38.039216%,41.568627%);fill-opacity:1;" d="M 266.96875 248.027344 L 258.519531 251.515625 L 241.054688 220.535156 L 253.523438 215.382812 Z M 266.96875 248.027344 "/>
<path style=" stroke:none;fill-rule:nonzero;fill:rgb(18.431373%,18.039216%,25.490196%);fill-opacity:1;" d="M 237.945312 259.796875 C 237.863281 260.351562 238.316406 261.839844 238.527344 262.355469 C 239.179688 263.941406 240.996094 264.699219 242.578125 264.042969 L 268.742188 253.230469 C 269.824219 252.78125 270.335938 251.542969 269.890625 250.460938 L 269.441406 249.371094 C 269.441406 249.371094 269.386719 245.554688 265.054688 242.613281 C 265.054688 242.613281 263.046875 247.148438 256.054688 244.238281 L 253.503906 242.191406 L 246.128906 254.296875 L 240.570312 257.441406 C 239.355469 258.128906 238.144531 258.414062 237.945312 259.796875 Z M 237.945312 259.796875 "/>
<path style=" stroke:none;fill-rule:nonzero;fill:rgb(18.431373%,18.039216%,25.490196%);fill-opacity:1;" d="M 235.15625 137.675781 L 231.425781 151.941406 L 232.421875 175.089844 L 234.066406 213.535156 L 234.113281 214.617188 L 234.300781 218.941406 L 235.15625 238.902344 L 216.78125 238.902344 L 208.597656 183.136719 L 202.132812 139.058594 L 202.8125 116.613281 L 202.847656 115.4375 C 202.847656 115.4375 235.714844 114.007812 239.289062 118.660156 C 242.859375 123.3125 235.15625 137.675781 235.15625 137.675781 Z M 235.15625 137.675781 "/>
<path style=" stroke:none;fill-rule:nonzero;fill:rgb(18.431373%,18.039216%,25.490196%);fill-opacity:1;" d="M 260.726562 224.554688 L 257.609375 226.167969 L 246.089844 232.140625 L 244.402344 233.011719 L 234.300781 218.941406 L 208.597656 183.136719 L 202.132812 139.058594 L 202.8125 116.613281 C 205.71875 115.6875 208.046875 115.308594 209.222656 115.859375 C 214.53125 118.34375 214.28125 134.648438 214.28125 134.648438 L 217.511719 149.035156 L 232.421875 175.089844 Z M 260.726562 224.554688 "/>
<path style=" stroke:none;fill-rule:nonzero;fill:rgb(94.901961%,94.901961%,94.901961%);fill-opacity:1;" d="M 194.277344 228.953125 C 194.042969 228.230469 192.25 228.550781 192.078125 227.902344 C 191.90625 227.253906 193.625 226.710938 194.945312 224.890625 C 195.183594 224.5625 196.683594 222.496094 196.109375 221.625 C 195.019531 219.976562 187.4375 224.082031 185.617188 221.777344 C 185.214844 221.273438 185.050781 220.402344 183.863281 218.789062 C 183.390625 218.144531 183.085938 217.832031 182.722656 217.84375 C 182.207031 217.855469 182.023438 218.5 181.214844 219.667969 C 180 221.421875 179.5625 221.203125 178.761719 222.636719 C 178.167969 223.703125 178.097656 224.386719 177.671875 224.425781 C 177.066406 224.484375 176.816406 223.15625 176.074219 223.105469 C 175.320312 223.050781 174.566406 224.363281 174.191406 225.386719 C 173.488281 227.3125 173.921875 228.78125 174.019531 230.246094 C 174.125 231.835938 173.878906 234.167969 172.152344 237.15625 L 155.867188 263.148438 C 159.363281 257.851562 169.292969 243.402344 173.292969 238.101562 C 174.445312 236.570312 175.6875 235.035156 177.597656 234.746094 C 179.433594 234.46875 181.671875 235.378906 184.796875 235.328125 C 185.160156 235.320312 186.175781 235.289062 186.421875 234.75 C 186.625 234.304688 186.121094 233.917969 186.304688 233.5 C 186.550781 232.9375 187.664062 233.179688 189.179688 232.804688 C 190.25 232.542969 190.976562 232.109375 191.601562 231.734375 C 191.789062 231.621094 194.59375 229.917969 194.277344 228.953125 Z M 194.277344 228.953125 "/>
<path style=" stroke:none;fill-rule:nonzero;fill:rgb(94.901961%,94.901961%,94.901961%);fill-opacity:1;" d="M 151.625 235.023438 C 151.203125 234.929688 150.839844 235.902344 150.472656 235.800781 C 150.105469 235.699219 150.339844 234.695312 149.828125 233.523438 C 149.734375 233.3125 149.152344 231.976562 148.5625 232.007812 C 147.4375 232.070312 147.261719 236.980469 145.609375 237.210938 C 145.246094 237.261719 144.773438 237.09375 143.636719 237.210938 C 143.1875 237.257812 142.945312 237.316406 142.847656 237.5 C 142.703125 237.753906 142.96875 238.03125 143.304688 238.765625 C 143.816406 239.871094 143.582031 240.023438 144.054688 240.828125 C 144.40625 241.429688 144.71875 241.660156 144.613281 241.882812 C 144.46875 242.195312 143.746094 241.9375 143.507812 242.285156 C 143.261719 242.640625 143.6875 243.390625 144.082031 243.871094 C 144.820312 244.769531 145.664062 244.980469 146.410156 245.355469 C 147.222656 245.765625 148.292969 246.558594 149.257812 248.269531 L 157.296875 263.773438 C 155.707031 260.527344 151.492188 251.476562 150.050781 247.980469 C 149.632812 246.972656 149.238281 245.917969 149.648438 244.894531 C 150.042969 243.910156 151.136719 243.074219 152.011719 241.523438 C 152.113281 241.34375 152.390625 240.835938 152.199219 240.558594 C 152.039062 240.328125 151.703125 240.46875 151.550781 240.253906 C 151.347656 239.972656 151.785156 239.496094 152.039062 238.640625 C 152.21875 238.039062 152.21875 237.558594 152.214844 237.140625 C 152.214844 237.015625 152.1875 235.148438 151.625 235.023438 Z M 151.625 235.023438 "/>
<path style=" stroke:none;fill-rule:nonzero;fill:rgb(94.901961%,94.901961%,94.901961%);fill-opacity:1;" d="M 159.640625 238.804688 L 159.894531 236.46875 L 160.050781 236.324219 C 160.765625 235.644531 161.214844 234.925781 161.382812 234.1875 C 161.410156 234.070312 161.429688 233.949219 161.453125 233.828125 C 161.535156 233.347656 161.640625 232.75 162.101562 232.128906 C 162.359375 231.785156 163.039062 231.003906 163.746094 231.277344 C 163.933594 231.347656 164.0625 231.472656 164.152344 231.601562 C 164.175781 231.578125 164.195312 231.558594 164.222656 231.53125 C 164.527344 231.238281 164.738281 231.128906 164.945312 231.023438 C 165.101562 230.945312 165.261719 230.859375 165.539062 230.640625 C 165.660156 230.542969 165.753906 230.457031 165.835938 230.382812 C 166.085938 230.164062 166.398438 229.902344 166.832031 230.007812 C 167.292969 230.132812 167.449219 230.570312 167.554688 230.859375 C 167.738281 231.378906 167.796875 231.734375 167.835938 231.96875 C 167.847656 232.054688 167.863281 232.152344 167.875 232.183594 C 167.976562 232.4375 169.238281 232.503906 169.710938 232.53125 C 170.777344 232.589844 171.699219 232.640625 171.921875 233.371094 C 172.082031 233.894531 171.75 234.464844 170.90625 235.113281 C 170.644531 235.3125 170.382812 235.453125 170.15625 235.554688 C 170.292969 235.6875 170.40625 235.871094 170.414062 236.117188 C 170.429688 236.699219 169.832031 237.148438 168.636719 237.449219 C 168.34375 237.523438 167.941406 237.625 167.421875 237.601562 C 167.175781 237.585938 166.960938 237.550781 166.777344 237.515625 C 166.75 237.621094 166.699219 237.726562 166.609375 237.832031 C 166.34375 238.136719 165.914062 238.214844 165.332031 238.042969 C 164.6875 237.863281 164.179688 237.617188 163.734375 237.402344 C 163.339844 237.21875 163.003906 237.058594 162.71875 237.015625 C 162.195312 236.941406 161.703125 237.265625 161.113281 237.699219 Z M 159.640625 238.804688 "/>
<path style=" stroke:none;fill-rule:nonzero;fill:rgb(94.901961%,94.901961%,94.901961%);fill-opacity:1;" d="M 163.84375 225.5 L 161.527344 225.847656 L 161.34375 225.734375 C 160.507812 225.214844 159.699219 224.960938 158.941406 224.984375 C 158.820312 224.988281 158.703125 225 158.578125 225.011719 C 158.09375 225.050781 157.492188 225.101562 156.777344 224.8125 C 156.375 224.648438 155.449219 224.1875 155.535156 223.433594 C 155.554688 223.234375 155.640625 223.078125 155.746094 222.957031 C 155.71875 222.941406 155.691406 222.925781 155.660156 222.90625 C 155.296875 222.6875 155.136719 222.507812 154.984375 222.335938 C 154.867188 222.207031 154.746094 222.070312 154.464844 221.859375 C 154.339844 221.765625 154.230469 221.695312 154.140625 221.632812 C 153.863281 221.449219 153.535156 221.210938 153.523438 220.765625 C 153.527344 220.289062 153.914062 220.023438 154.167969 219.851562 C 154.617188 219.539062 154.949219 219.390625 155.167969 219.296875 C 155.246094 219.261719 155.335938 219.21875 155.363281 219.199219 C 155.582031 219.039062 155.328125 217.800781 155.230469 217.335938 C 155.019531 216.289062 154.832031 215.382812 155.480469 214.980469 C 155.945312 214.695312 156.582031 214.871094 157.421875 215.523438 C 157.679688 215.726562 157.882812 215.945312 158.039062 216.140625 C 158.132812 215.96875 158.28125 215.816406 158.515625 215.746094 C 159.074219 215.582031 159.660156 216.046875 160.253906 217.128906 C 160.402344 217.394531 160.597656 217.757812 160.707031 218.269531 C 160.757812 218.511719 160.777344 218.726562 160.789062 218.914062 C 160.898438 218.914062 161.015625 218.9375 161.136719 218.996094 C 161.5 219.175781 161.683594 219.574219 161.664062 220.179688 C 161.652344 220.851562 161.546875 221.402344 161.453125 221.890625 C 161.371094 222.320312 161.304688 222.6875 161.332031 222.972656 C 161.394531 223.5 161.835938 223.894531 162.402344 224.355469 Z M 163.84375 225.5 "/>
<path style=" stroke:none;fill-rule:nonzero;fill:rgb(94.901961%,94.901961%,94.901961%);fill-opacity:1;" d="M 164.160156 218.523438 L 164.410156 216.1875 L 164.566406 216.039062 C 165.28125 215.359375 165.730469 214.640625 165.898438 213.902344 C 165.925781 213.785156 165.945312 213.664062 165.96875 213.542969 C 166.050781 213.0625 166.15625 212.464844 166.617188 211.847656 C 166.875 211.5 167.558594 210.71875 168.261719 210.992188 C 168.449219 211.0625 168.578125 211.1875 168.667969 211.316406 C 168.691406 211.296875 168.714844 211.273438 168.738281 211.25 C 169.042969 210.953125 169.253906 210.84375 169.460938 210.738281 C 169.617188 210.660156 169.78125 210.578125 170.054688 210.355469 C 170.175781 210.257812 170.273438 210.171875 170.355469 210.097656 C 170.601562 209.878906 170.917969 209.621094 171.347656 209.722656 C 171.808594 209.847656 171.964844 210.285156 172.070312 210.578125 C 172.257812 211.09375 172.3125 211.449219 172.351562 211.6875 C 172.363281 211.773438 172.382812 211.871094 172.394531 211.902344 C 172.492188 212.15625 173.753906 212.21875 174.226562 212.246094 C 175.292969 212.304688 176.214844 212.355469 176.4375 213.085938 C 176.597656 213.609375 176.265625 214.179688 175.421875 214.828125 C 175.160156 215.027344 174.898438 215.167969 174.671875 215.269531 C 174.8125 215.40625 174.921875 215.585938 174.929688 215.832031 C 174.945312 216.414062 174.347656 216.863281 173.15625 217.164062 C 172.859375 217.242188 172.460938 217.339844 171.9375 217.316406 C 171.691406 217.304688 171.476562 217.265625 171.292969 217.230469 C 171.265625 217.335938 171.214844 217.445312 171.125 217.546875 C 170.859375 217.851562 170.429688 217.929688 169.847656 217.757812 C 169.207031 217.578125 168.695312 217.335938 168.25 217.121094 C 167.859375 216.933594 167.519531 216.773438 167.238281 216.730469 C 166.710938 216.65625 166.21875 216.980469 165.632812 217.414062 Z M 164.160156 218.523438 "/>
<path style=" stroke:none;fill-rule:nonzero;fill:rgb(94.901961%,94.901961%,94.901961%);fill-opacity:1;" d="M 156.636719 263.28125 L 156.226562 262.875 L 156.234375 262.300781 L 156.226562 262.875 L 155.65625 262.816406 C 155.660156 262.761719 155.65625 262.636719 155.652344 262.441406 C 155.628906 261.367188 155.558594 258.09375 156.015625 253.070312 C 156.332031 249.5625 156.863281 246 157.59375 242.484375 C 158.320312 238.960938 159.078125 236.339844 159.6875 234.234375 C 160.148438 232.644531 160.609375 231.140625 161.0625 229.671875 C 162.269531 225.75 163.410156 222.046875 164.117188 217.820312 C 164.273438 216.878906 164.601562 214.914062 163.929688 212.597656 C 163.542969 211.253906 162.875 209.988281 161.945312 208.839844 L 162.84375 208.113281 C 163.867188 209.382812 164.605469 210.785156 165.039062 212.277344 C 165.785156 214.84375 165.425781 216.984375 165.253906 218.011719 C 164.535156 222.3125 163.382812 226.050781 162.164062 230.011719 C 161.714844 231.472656 161.253906 232.972656 160.796875 234.554688 C 160.191406 236.644531 159.441406 239.242188 158.722656 242.71875 C 158 246.191406 157.476562 249.710938 157.164062 253.171875 C 156.714844 258.136719 156.78125 261.355469 156.804688 262.414062 C 156.816406 262.980469 156.816406 263.097656 156.636719 263.28125 Z M 156.636719 263.28125 "/>
<path style=" stroke:none;fill-rule:nonzero;fill:rgb(94.901961%,94.901961%,94.901961%);fill-opacity:1;" d="M 159.484375 210.167969 C 159.4375 210.15625 159.394531 210.144531 159.347656 210.132812 C 158.398438 209.867188 157.640625 209.09375 157.089844 207.835938 C 156.832031 207.246094 156.769531 206.621094 156.648438 205.378906 C 156.628906 205.1875 156.546875 204.222656 156.648438 202.9375 C 156.714844 202.097656 156.804688 201.761719 157.035156 201.496094 C 157.285156 201.203125 157.628906 201.035156 157.988281 200.949219 C 157.996094 200.839844 158.035156 200.730469 158.105469 200.625 C 158.402344 200.199219 158.898438 200.375 159.167969 200.464844 C 159.304688 200.515625 159.472656 200.578125 159.664062 200.609375 C 159.960938 200.660156 160.140625 200.609375 160.410156 200.53125 C 160.667969 200.457031 160.988281 200.363281 161.433594 200.371094 C 162.308594 200.382812 162.957031 200.777344 163.171875 200.90625 C 164.296875 201.582031 164.6875 202.664062 165.136719 203.917969 C 165.226562 204.167969 165.523438 205.074219 165.589844 206.246094 C 165.640625 207.085938 165.53125 207.433594 165.40625 207.679688 C 165.148438 208.1875 164.75 208.421875 163.769531 208.917969 C 162.746094 209.433594 162.230469 209.695312 161.808594 209.828125 C 160.828125 210.136719 160.210938 210.328125 159.484375 210.167969 Z M 159.484375 210.167969 "/>
<path style=" stroke:none;fill-rule:nonzero;fill:rgb(90.196078%,90.196078%,90.196078%);fill-opacity:1;" d="M 291.019531 264.394531 C 291.019531 264.625 290.832031 264.816406 290.601562 264.816406 L 0 264.816406 L 0 263.972656 L 290.601562 263.972656 C 290.832031 263.972656 291.019531 264.164062 291.019531 264.394531 Z M 291.019531 264.394531 "/>
<path style=" stroke:none;fill-rule:nonzero;fill:rgb(90.196078%,90.196078%,90.196078%);fill-opacity:1;" d="M 80.84375 32.59375 L 98.707031 41.179688 C 98.707031 41.179688 117.640625 97.367188 117.640625 100.230469 C 117.640625 103.09375 123 104.882812 119.785156 108.101562 C 116.570312 111.324219 125.769531 114.050781 120.8125 116.625 C 115.855469 119.195312 84.933594 133.269531 81.492188 132 C 72.011719 128.5 81.894531 115.640625 81.894531 115.640625 C 81.894531 115.640625 74.773438 109.890625 75.84375 107.027344 C 76.914062 104.167969 69.414062 49.414062 69.414062 49.414062 Z M 80.84375 32.59375 "/>
<path style=" stroke:none;fill-rule:nonzero;fill:rgb(18.431373%,18.039216%,25.490196%);fill-opacity:1;" d="M 96.132812 21.863281 L 98.152344 25.914062 C 98.152344 25.914062 100.175781 18.621094 103.410156 17 C 106.648438 15.378906 107.050781 12.949219 107.050781 12.949219 C 107.050781 12.949219 111.097656 18.214844 113.929688 17 C 116.757812 15.785156 117.972656 14.976562 114.738281 10.113281 C 111.5 5.25 112.308594 7.683594 112.308594 7.683594 C 112.308594 7.683594 109.480469 3.628906 109.882812 4.84375 C 110.289062 6.0625 107.457031 1.605469 107.457031 2.820312 C 107.457031 4.035156 105.433594 0.386719 105.433594 1.605469 C 105.433594 2.820312 96.941406 -1.230469 98.152344 0.386719 C 99.367188 2.007812 90.871094 -2.851562 86.828125 3.628906 C 82.785156 10.113281 77.175781 8.914062 79.171875 12.957031 C 81.164062 17 80.355469 27.941406 80.355469 27.941406 L 85.933594 27.941406 C 85.933594 27.941406 91.683594 17 96.132812 21.863281 Z M 96.132812 21.863281 "/>
<path style=" stroke:none;fill-rule:nonzero;fill:rgb(42.352941%,38.823529%,100%);fill-opacity:1;" d="M 215.171875 56.210938 L 215.5 56.121094 L 231.605469 51.558594 L 244.46875 69.09375 L 235.894531 105.597656 L 239.109375 120.269531 C 239.109375 120.269531 213.027344 113.472656 202.667969 119.195312 C 202.667969 119.195312 201.953125 115.933594 202.667969 114.34375 C 203.382812 112.753906 204.453125 106.140625 203.382812 103.1875 C 202.3125 100.230469 205.527344 86.273438 205.527344 86.273438 C 205.527344 86.273438 204.453125 76.96875 209.097656 72.316406 C 213.742188 67.664062 215.171875 56.210938 215.171875 56.210938 Z M 215.171875 56.210938 "/>
<path style=" stroke:none;fill-rule:nonzero;fill:rgb(42.352941%,38.823529%,100%);fill-opacity:1;" d="M 200.542969 122.125 L 143.949219 93.949219 C 143.667969 93.808594 143.421875 93.617188 143.214844 93.375 L 134.386719 82.949219 C 133.800781 82.257812 133.671875 81.28125 134.0625 80.464844 L 150.621094 45.664062 C 150.910156 45.054688 151.453125 44.605469 152.101562 44.429688 C 152.753906 44.253906 153.449219 44.371094 154.003906 44.753906 L 193.917969 72.179688 C 194.738281 72.742188 195.101562 73.765625 194.828125 74.71875 L 186.726562 102.96875 C 186.503906 103.742188 186.785156 104.585938 187.429688 105.066406 L 203.460938 117.113281 C 204.324219 117.761719 204.621094 118.941406 204.167969 119.925781 L 203.660156 121.023438 C 203.398438 121.597656 202.925781 122.027344 202.335938 122.234375 C 202.085938 122.324219 201.824219 122.367188 201.566406 122.367188 C 201.21875 122.367188 200.867188 122.285156 200.542969 122.125 Z M 200.542969 122.125 "/>
<path style=" stroke:none;fill-rule:nonzero;fill:rgb(94.901961%,94.901961%,94.901961%);fill-opacity:1;" d="M 200.09375 115.265625 L 184.339844 102.136719 C 184.203125 102.023438 184.09375 101.882812 184.019531 101.730469 C 183.878906 101.4375 183.847656 101.09375 183.957031 100.773438 L 192.933594 74.460938 C 193.164062 73.78125 192.914062 73.019531 192.324219 72.613281 L 154.917969 46.960938 C 154.535156 46.695312 154.058594 46.613281 153.605469 46.730469 C 153.152344 46.851562 152.777344 47.15625 152.570312 47.578125 L 136.800781 79.652344 C 136.5625 80.136719 136.582031 80.691406 136.84375 81.152344 C 136.875 81.214844 136.917969 81.277344 136.960938 81.335938 L 144.894531 91.820312 C 145.046875 92.019531 145.246094 92.183594 145.472656 92.296875 L 198.367188 117.953125 C 198.589844 118.058594 198.828125 118.113281 199.066406 118.113281 C 199.480469 118.113281 199.894531 117.953125 200.203125 117.640625 C 200.238281 117.601562 200.273438 117.566406 200.3125 117.523438 C 200.5625 117.21875 200.691406 116.828125 200.671875 116.429688 C 200.648438 115.980469 200.441406 115.558594 200.09375 115.265625 Z M 200.09375 115.265625 "/>
<path style=" stroke:none;fill-rule:nonzero;fill:rgb(42.352941%,38.823529%,100%);fill-opacity:1;" d="M 143.007812 77.683594 C 143.136719 77.683594 143.261719 77.613281 143.328125 77.488281 L 156.148438 51.96875 C 156.238281 51.792969 156.164062 51.578125 155.988281 51.488281 C 155.8125 51.402344 155.597656 51.472656 155.511719 51.648438 L 142.6875 77.164062 C 142.597656 77.34375 142.671875 77.558594 142.847656 77.644531 C 142.898438 77.671875 142.953125 77.683594 143.007812 77.683594 Z M 143.007812 77.683594 "/>
<path style=" stroke:none;fill-rule:nonzero;fill:rgb(42.352941%,38.823529%,100%);fill-opacity:1;" d="M 149.792969 81.976562 C 149.925781 81.976562 150.050781 81.90625 150.113281 81.78125 L 162.9375 56.265625 C 163.023438 56.089844 162.953125 55.875 162.777344 55.785156 C 162.601562 55.695312 162.386719 55.765625 162.296875 55.941406 L 149.476562 81.460938 C 149.386719 81.636719 149.457031 81.851562 149.632812 81.941406 C 149.6875 81.964844 149.742188 81.976562 149.792969 81.976562 Z M 149.792969 81.976562 "/>
<path style=" stroke:none;fill-rule:nonzero;fill:rgb(42.352941%,38.823529%,100%);fill-opacity:1;" d="M 155.511719 85.558594 C 155.640625 85.558594 155.765625 85.484375 155.832031 85.359375 L 168.652344 59.84375 C 168.742188 59.667969 168.667969 59.453125 168.492188 59.363281 C 168.316406 59.273438 168.101562 59.34375 168.015625 59.523438 L 155.191406 85.039062 C 155.101562 85.214844 155.175781 85.429688 155.351562 85.519531 C 155.402344 85.542969 155.457031 85.558594 155.511719 85.558594 Z M 155.511719 85.558594 "/>
<path style=" stroke:none;fill-rule:nonzero;fill:rgb(100%,71.372549%,71.372549%);fill-opacity:1;" d="M 135.273438 82.101562 C 139.707031 80.789062 143.976562 82.015625 144.808594 84.84375 C 145.644531 87.667969 142.726562 91.023438 138.289062 92.335938 C 136.523438 92.882812 134.65625 93 132.835938 92.675781 L 113.984375 97.996094 L 111.679688 89.082031 L 130.511719 84.78125 C 131.863281 83.519531 133.496094 82.601562 135.273438 82.101562 Z M 135.273438 82.101562 "/>
<path style=" stroke:none;fill-rule:nonzero;fill:rgb(90.196078%,90.196078%,90.196078%);fill-opacity:1;" d="M 101.925781 50.503906 L 98.972656 85.914062 L 125.441406 86.199219 L 130.578125 94.125 C 130.578125 94.125 98.496094 112.730469 88.863281 103.222656 C 79.230469 93.714844 74.945312 53.703125 83.507812 46.855469 C 92.074219 40.007812 101.925781 50.503906 101.925781 50.503906 Z M 101.925781 50.503906 "/>
<path style=" stroke:none;fill-rule:nonzero;fill:rgb(62.745098%,38.039216%,41.568627%);fill-opacity:1;" d="M 188.636719 114.441406 C 184.027344 114.09375 180.46875 111.429688 180.691406 108.492188 C 180.910156 105.550781 184.828125 103.453125 189.4375 103.800781 C 191.28125 103.914062 193.074219 104.46875 194.660156 105.417969 L 214.171875 107.140625 L 213.167969 116.292969 L 194.039062 113.625 C 192.328125 114.324219 190.476562 114.605469 188.636719 114.441406 Z M 188.636719 114.441406 "/>
<path style=" stroke:none;fill-rule:nonzero;fill:rgb(42.352941%,38.823529%,100%);fill-opacity:1;" d="M 245.699219 71.433594 L 242.511719 111.328125 C 242.511719 111.328125 241.507812 119.925781 228.140625 119.386719 C 214.773438 118.847656 197.023438 114.621094 197.023438 114.621094 L 197.664062 105.308594 L 212.601562 106.125 C 212.601562 106.125 219.445312 104.066406 220.882812 105.128906 C 222.320312 106.191406 221.761719 107.554688 223.03125 105.828125 C 224.304688 104.097656 223.566406 103.109375 224.835938 104.492188 C 226.105469 105.875 226.484375 108.375 227.03125 105.222656 C 227.578125 102.070312 228.9375 102.628906 228.9375 102.628906 L 228.140625 73.578125 C 228.140625 73.578125 231.386719 59.523438 238.921875 63.757812 C 246.457031 67.992188 245.699219 71.433594 245.699219 71.433594 Z M 245.699219 71.433594 "/>
</g>
</svg>
